<?xml version="1.0" encoding="utf-8"?>
<!-- Generator: Adobe Illustrator 22.1.0, SVG Export Plug-In . SVG Version: 6.00 Build 0)  -->
<svg version="1.1" id="图层_1" xmlns="http://www.w3.org/2000/svg" xmlns:xlink="http://www.w3.org/1999/xlink" x="0px" y="0px"
	 viewBox="0 0 200 200" style="enable-background:new 0 0 200 200;" xml:space="preserve">
<style type="text/css">
	.st0{fill:#FFFFFF;}
</style>
<path class="st0" d="M48.8,160c3.8,0,7.5-1.3,11.3-3.8h1.2l-35-35v1.3c-2.5,3.8-3.7,7.5-3.7,11.3L10,172.5L48.8,160L48.8,160
	L48.8,160L48.8,160z M173.8,20L162.5,8.8c-6.3-6.3-16.3-6.3-22.5,0L128.8,20l33.8,33.8l11.3-11.3C180,36.3,180,26.2,173.8,20
	L173.8,20L173.8,20L173.8,20z M151.3,65l-33.8-33.8L38.8,110l33.8,33.8L151.3,65L151.3,65L151.3,65L151.3,65z"/>
<path class="st0" d="M0,183.8h200v12.5H0V183.8L0,183.8z"/>
</svg>
